<?xml version="1.0" encoding="utf-8"?>
<!-- Generator: Adobe Illustrator 18.0.0, SVG Export Plug-In . SVG Version: 6.00 Build 0)  -->
<!DOCTYPE svg PUBLIC "-//W3C//DTD SVG 1.1//EN" "http://www.w3.org/Graphics/SVG/1.1/DTD/svg11.dtd">
<svg version="1.1" id="图层_1" xmlns="http://www.w3.org/2000/svg" xmlns:xlink="http://www.w3.org/1999/xlink" x="0px" y="0px"
     viewBox="0 0 298 110" enable-background="new 0 0 298 110" xml:space="preserve">
<g>
	<g>
		<path fill="#FFFFFF" d="M88.7,59.7c-3.5-11-9.8-11.3-16.4-18.4c-8.4-9-7-15.7-16.4-20.4c-8.3-4.2-19.7-3.5-29.7,4.1
			C7.8,39,4.7,65.5,18.8,83.8c14.1,18.3,40.4,21.7,58.5,7.4C87.9,82.8,91.6,68.7,88.7,59.7z M63.8,73.7c-8.6,6.7-21,5.1-27.7-3.5
			c-6.7-8.6-4.9-20.8,3.5-27.8c9.5-7.8,18.3-1.6,23.6,4.7C70.3,55.7,72.4,67,63.8,73.7z"/>
        <path fill="#FFFFFF" d="M102,16.8c-5.3-7-14.8-8.9-21.2-4.2c-6.4,4.6-7.3,14.1-2,21.1c5.3,7,14.8,8.9,21.2,4.2
			C106.4,33.2,107.3,23.7,102,16.8z"/>
	</g>
    <path fill="#FFFFFF" d="M119.8,81.7L121,82c-0.2,0.5-0.4,1-0.7,1.5h8.5c0,3.5-0.1,6-0.2,7.3c-0.1,1.6-0.9,2.5-2.4,2.4
		c-0.4,0-1.1,0-2.1-0.1c-0.1-0.4-0.1-0.8-0.2-1.2c0.8,0.1,1.5,0.1,2.2,0.1c0.9,0,1.4-0.5,1.4-1.4c0.1-1.3,0.2-3.3,0.2-6.1h-7.8
		c-0.3,0.6-0.7,1.2-1.1,1.8h6.1v4.3h-5.3v2.8c0,0.8,0.4,1.2,1.2,1.2h6.9c0.9,0,1.5-0.3,1.6-0.9c0.1-0.5,0.3-1.3,0.4-2.2
		c0.4,0.2,0.8,0.3,1.2,0.4c-0.1,0.9-0.2,1.6-0.4,2.1c-0.2,1.1-1.1,1.6-2.5,1.6h-7.4c-1.4,0-2.2-0.7-2.2-2.1v-6.7
		c-0.5,0.7-1,1.3-1.5,1.9c-0.2-0.4-0.5-0.7-0.7-1C117.7,85.9,119,83.9,119.8,81.7z M123.6,87.4h-4.2v2.3h4.2V87.4z"/>
    <path fill="#FFFFFF" d="M133.6,83.3h6.7c-0.2-0.3-0.4-0.7-0.7-1.2l1.1-0.5c0.3,0.5,0.6,1.1,0.9,1.7h6.4v1h-14.5V83.3z M134.6,86.4
		h3.6c-0.3-0.5-0.7-1-1.1-1.5l0.9-0.6c0.5,0.6,0.9,1.1,1.3,1.5l-0.8,0.5h3.3c0.5-0.6,1-1.3,1.4-2l1.1,0.7c-0.5,0.6-0.9,1-1.2,1.4
		h3.7v7.7c0,1.2-0.6,1.9-1.7,1.9c-0.6,0-1.3,0-2.1,0c-0.1-0.6-0.2-1-0.2-1.2c0.8,0.1,1.4,0.1,1.9,0.1c0.6,0,1-0.4,1-1.1v-6.4h-10
		v8.8h-1.1V86.4z M138.9,87.6l0.8,0.8c-1.1,1-2.2,1.9-3.2,2.6c-0.3-0.4-0.5-0.7-0.7-0.9C136.9,89.4,137.9,88.6,138.9,87.6z
		 M137.8,94.8V90h5.9v4h-4.8v0.8H137.8z M142.7,93.1V91h-3.8v2.1H142.7z M141.5,88.4l0.6-0.8c1.5,0.9,2.6,1.7,3.3,2.2l-0.7,0.9
		C143.8,90,142.7,89.2,141.5,88.4z"/>
    <path fill="#FFFFFF" d="M156.2,92.9c0,0.4,0,0.8,0.1,1.2c-0.7,0.4-1.5,0.9-2.3,1.5c-0.2,0.2-0.5,0.4-0.7,0.6l-0.8-1
		c0.3-0.3,0.5-0.7,0.5-1.1v-3.3h-2v-1h2v-2.2h-1v-1c-0.2,0.2-0.3,0.5-0.5,0.7c-0.2-0.4-0.4-0.7-0.6-1c1-1.4,1.7-2.9,2.3-4.6l1.1,0.4
		c-0.2,0.7-0.5,1.3-0.8,1.9h2.7v1h-3.2c-0.3,0.5-0.6,1.1-0.9,1.6h3.8v1H154v2.2h2.1v1H154v3.5C154.6,93.9,155.4,93.4,156.2,92.9z
		 M164.3,90.1l0.8,0.9c-1,0.7-1.9,1.3-2.9,1.9c0.9,0.9,2,1.6,3.4,2c-0.3,0.4-0.6,0.8-0.8,1.1c-2.9-1.1-4.7-3.2-5.5-6.3H158v4.8
		c0.8-0.4,1.6-0.8,2.6-1.3c0,0.5,0,0.9,0.1,1.2c-0.8,0.4-1.7,0.9-2.8,1.5c-0.1,0.1-0.3,0.3-0.6,0.5l-0.8-1c0.3-0.3,0.5-0.7,0.5-1.1
		V82.4h7.3V90h-1.1v-0.4h-2.7c0.3,0.9,0.7,1.7,1.2,2.4C162.5,91.5,163.4,90.8,164.3,90.1z M163.1,83.4H158v2.1h5.1V83.4z
		 M163.1,88.6v-2.1H158v2.1H163.1z"/>
    <path fill="#FFFFFF" d="M168.5,90.5c1.5-1.3,2.9-3,4.2-5.3l1,0.6c-0.5,0.9-1,1.7-1.6,2.5v7.8h-1.2v-6.3c-0.6,0.7-1.2,1.3-1.8,1.9
		C168.8,91.3,168.7,90.9,168.5,90.5z M168.6,85.9c1.6-1.2,2.8-2.6,3.8-4.2l1.1,0.7c-1.1,1.8-2.6,3.3-4.2,4.7
		C169,86.6,168.8,86.2,168.6,85.9z M173.8,87.2h9.3v1.1h-2.9v5.8c0,1.2-0.6,1.8-1.8,1.8c-0.8,0-1.7,0-2.5,0
		c-0.1-0.4-0.1-0.8-0.2-1.3c0.8,0.1,1.5,0.1,2.3,0.1c0.7,0,1-0.3,1-1v-5.4h-5.2V87.2z M174.7,82.8h7.6v1.1h-7.6V82.8z"/>
    <path fill="#FFFFFF" d="M186.2,84.1h2.6c-0.3-0.7-0.6-1.4-1-2l0.9-0.4c0.4,0.6,0.7,1.3,1.1,2l-0.9,0.4h2.5v1h-2.7
		c0,0.8,0,1.5,0,2.2h2.6c-0.1,2.5-0.1,4.8-0.2,6.6c-0.1,1.3-0.6,1.9-1.5,1.9c-0.5,0-1,0-1.5,0c-0.1-0.3-0.1-0.7-0.2-1.1
		c0.6,0.1,1,0.1,1.2,0.1c0.6,0,0.9-0.3,0.9-1c0.1-1.4,0.2-3.2,0.2-5.5h-1.6c0,3.8-0.6,6.4-1.9,7.9c-0.2-0.3-0.4-0.6-0.7-0.9
		c0.9-1.2,1.4-3.1,1.5-5.9c0-0.8,0.1-2.2,0.1-4.2h-1.4V84.1z M194.5,93.3l0.8,0.8c-1.2,0.9-2.3,1.7-3.2,2.2
		c-0.2-0.3-0.4-0.6-0.7-0.9C192.4,94.9,193.4,94.2,194.5,93.3z M191.6,92.3h1.6v-5.3h-1.4v-1h1.4v-1.2h1.1V86h3.6v-1.2h1.1V86h1.4v1
		h-1.4v5.3h1.7v1h-9V92.3z M191.6,84.8c0.7-0.8,1.3-1.9,1.7-3.2l1.1,0.3c-0.2,0.4-0.4,0.8-0.6,1.2h6.7v1h-7.2
		c-0.3,0.6-0.7,1.1-1,1.5C192.1,85.3,191.9,85,191.6,84.8z M194.2,88.1h3.6v-1.2h-3.6V88.1z M194.2,90.2h3.6V89h-3.6V90.2z
		 M194.2,92.3h3.6v-1.2h-3.6V92.3z M196.8,94.1l0.7-0.8c1,0.7,2,1.4,3,2.1l-0.7,0.9C198.8,95.4,197.8,94.7,196.8,94.1z"/>
    <path fill="#FFFFFF" d="M203.4,82.9h14.3v1.2h-7.2v3.2l0.7-0.9c2.2,1.3,4.1,2.5,5.7,3.6l-0.9,1.2c-1.5-1.2-3.3-2.4-5.5-3.7v8.7
		h-1.3v-12h-5.8V82.9z"/>
    <path fill="#FFFFFF" d="M220.8,90.3h2.2c0.2-0.4,0.4-0.8,0.6-1.2l1.1,0.3c-0.2,0.3-0.3,0.5-0.5,0.8h3.6v1c-0.4,1-0.9,1.8-1.7,2.5
		c0.5,0.3,1.1,0.5,1.6,0.8l-0.6,1c-0.6-0.3-1.2-0.7-1.9-1c-1.1,0.8-2.5,1.4-4.2,1.9c-0.2-0.3-0.3-0.7-0.5-1c1.4-0.3,2.6-0.8,3.6-1.4
		c-0.8-0.4-1.7-0.9-2.7-1.3c0.3-0.5,0.6-0.9,0.9-1.4h-1.7V90.3z M221,85.2h3.4v-3.3h1.1v3.3h2.8v1h-2.8v0.9l0.4-0.5
		c0.9,0.7,1.7,1.3,2.3,1.8l-0.7,0.8c-0.5-0.5-1.2-1.1-2-1.7v1.7h-1.1V87c-0.9,0.9-1.9,1.8-3.1,2.5c-0.2-0.3-0.4-0.6-0.6-0.9
		c1.2-0.7,2.4-1.5,3.4-2.5h-3V85.2z M221.4,82.9l0.8-0.6c0.4,0.5,0.9,1.1,1.4,1.7l-0.9,0.7C222.2,84.1,221.8,83.5,221.4,82.9z
		 M223,92.3c0.7,0.3,1.4,0.6,2.2,1c0.7-0.6,1.2-1.3,1.6-2.1h-3.1C223.5,91.6,223.2,92,223,92.3z M227.6,82.2l0.9,0.6
		c-0.5,0.7-1.1,1.4-1.6,2c-0.2-0.2-0.5-0.4-0.8-0.6C226.6,83.6,227.1,82.9,227.6,82.2z M230.3,81.7l1.2,0.2c-0.2,1-0.4,1.8-0.7,2.7
		h4.5v1h-0.9c-0.2,2.9-0.9,5.2-1.9,6.9c0.8,1.1,1.8,2,3,2.7c-0.3,0.4-0.6,0.8-0.8,1.2c-1.2-0.8-2.2-1.7-3-2.8
		c-0.9,1.1-2,2.1-3.2,2.9c-0.2-0.3-0.5-0.6-0.8-0.9c1.4-0.9,2.5-1.9,3.3-3.1c-0.8-1.4-1.3-3-1.6-4.8c-0.2,0.4-0.4,0.7-0.6,1
		c-0.2-0.3-0.4-0.6-0.7-0.9C229.2,86.1,229.9,84.1,230.3,81.7z M233.2,85.6h-2.8c0,0.1-0.1,0.3-0.2,0.4c0.2,2.1,0.7,3.9,1.5,5.4
		C232.5,89.9,233,88,233.2,85.6z"/>
    <path fill="#FFFFFF" d="M238.3,90.4h6.9v-0.9l2.9-1.8H241v-1.1h8.9v1.2l-3.5,2.2v0.4h6.4v1.1h-6.4v2.7c0,1.3-0.6,1.9-1.9,1.9
		c-0.5,0-1.2,0-2.2,0c0-0.4-0.1-0.8-0.2-1.3c0.8,0.1,1.5,0.2,2.1,0.2c0.6,0,1-0.4,1-1.1v-2.4h-6.9V90.4z M238.9,83.9h6.8
		c-0.4-0.5-0.8-1.1-1.3-1.7l1-0.7c0.6,0.7,1.1,1.3,1.5,1.9l-0.7,0.5h6.2v3h-1.2V85h-11.1v1.9h-1.2V83.9z"/>
    <path fill="#FFFFFF" d="M261.1,92.9c0,0.4,0,0.8,0.1,1.2c-0.7,0.4-1.5,0.9-2.3,1.5c-0.2,0.2-0.5,0.4-0.7,0.6l-0.8-1
		c0.3-0.3,0.5-0.7,0.5-1.1v-3.3h-2v-1h2v-2.2h-1v-1c-0.2,0.2-0.3,0.5-0.5,0.7c-0.2-0.4-0.4-0.7-0.6-1c1-1.4,1.7-2.9,2.3-4.6l1.1,0.4
		c-0.2,0.7-0.5,1.3-0.8,1.9h2.7v1h-3.2c-0.3,0.5-0.6,1.1-0.9,1.6h3.8v1h-1.7v2.2h2.1v1h-2.1v3.5C259.5,93.9,260.2,93.4,261.1,92.9z
		 M269.2,90.1l0.7,0.9c-1,0.7-1.9,1.3-2.9,1.9c0.9,0.9,2,1.6,3.4,2c-0.3,0.4-0.6,0.8-0.8,1.1c-2.9-1.1-4.7-3.2-5.5-6.3h-1.4v4.8
		c0.8-0.4,1.6-0.8,2.6-1.3c0,0.5,0,0.9,0.1,1.2c-0.8,0.4-1.7,0.9-2.8,1.5c-0.1,0.1-0.3,0.3-0.6,0.5l-0.8-1c0.3-0.3,0.5-0.7,0.5-1.1
		V82.4h7.3V90h-1.1v-0.4h-2.7c0.3,0.9,0.7,1.7,1.2,2.4C267.4,91.5,268.3,90.8,269.2,90.1z M267.9,83.4h-5.1v2.1h5.1V83.4z
		 M267.9,88.6v-2.1h-5.1v2.1H267.9z"/>
    <path fill="#FFFFFF" d="M273.3,90.5c1.5-1.3,2.9-3,4.2-5.3l1,0.6c-0.5,0.9-1,1.7-1.6,2.5v7.8h-1.2v-6.3c-0.6,0.7-1.2,1.3-1.8,1.9
		C273.7,91.3,273.5,90.9,273.3,90.5z M273.4,85.9c1.6-1.2,2.8-2.6,3.8-4.2l1.1,0.7c-1.1,1.8-2.6,3.3-4.2,4.7
		C273.8,86.6,273.6,86.2,273.4,85.9z M278.7,87.2h9.3v1.1h-2.9v5.8c0,1.2-0.6,1.8-1.8,1.8c-0.8,0-1.7,0-2.5,0
		c-0.1-0.4-0.1-0.8-0.2-1.3c0.8,0.1,1.5,0.1,2.3,0.1c0.7,0,1-0.3,1-1v-5.4h-5.2V87.2z M279.5,82.8h7.6v1.1h-7.6V82.8z"/>
    <path fill="#FFFFFF" d="M166.8,41.3h30.3c0,0,1.2,0,1.2-1.5c0-1.5-1.2-1.5-1.2-1.5h-29.6c0-0.3,0-0.7,0-1c0-0.7-0.8-2-2.1-2
		c-2.5,0-2.6,2-2.6,2s-0.2,3.1-3.2,6.3c-1.1,1.2-1.1,2.5-0.6,3.3c0.5,0.9,1.9,1.4,3.2,0.6C164.6,45.7,166,43.5,166.8,41.3z
		 M189.1,66.1h-10.8v-2.2h9v0h0.7c0,0,1.2,0,1.2-1.6c0-1.6-1.2-1.6-1.2-1.6h-9.7v-2.2h10.2c0,0,1.2,0,1.2-1.6c0-1.6-1.2-1.6-1.2-1.6
		h-4c0.3-0.9,0.5-1.7,0.5-1.7s0-1.8-2.5-1.8c-2.3,0-2.5,1.8-2.5,1.8s-0.2,0.9-0.5,1.7h-7.8c-0.3-0.9-0.5-1.7-0.5-1.7
		s-0.2-1.8-2.5-1.8c-2.5,0-2.5,1.8-2.5,1.8s0.2,0.8,0.5,1.7h-4c0,0-1.2,0-1.2,1.6c0,1.6,1.2,1.6,1.2,1.6H173v2.2h-9.7
		c0,0-1.2,0-1.2,1.6c0,1.6,1.2,1.6,1.2,1.6h1.2v0h8.5v2.2h-10.8c0,0-1.2,0-1.2,1.6c0,1.6,1.2,1.6,1.2,1.6H173v2.3
		c0,0,0.1,1.6,2.6,1.6c2.5,0,2.6-1.6,2.6-1.6v-2.3h10.8c0,0,1.2,0,1.2-1.6C190.3,66.2,189.1,66.1,189.1,66.1z M168,43.1
		c0,0-1.2,0-1.2,1.5c0,1.4,1.2,1.5,1.2,1.5h26.8c0,0,1.2,0,1.2-1.5c0-1.5-1.2-1.5-1.2-1.5H168z M199.5,70.2h-0.8v0h-0.6
		c-0.8,0-1-0.4-1-1.1v-17c0,0,0,0,0,0v-1.2c0-1.7-0.8-3-3.1-3h-3.5c-0.7,0-1.1,0-1.3,0h-26.6c0,0-1.2,0-1.2,1.4
		c0,1.4,1.2,1.4,1.2,1.4h27.5c1.4,0,1.6,0.6,1.6,1.4c0,0.8,0,16.8,0,16.8c0,2.3,1.9,4.2,4.1,4.2h3.5c0,0,1.4-0.1,1.4-1.5
		S199.5,70.2,199.5,70.2z"/>
    <path fill="#FFFFFF" d="M152.9,40.4H130c0.2-0.9,0.4-1.7,0.4-2.1c0.3-1.6-0.6-2.9-2.5-2.9c-2.7,0-3,2.2-3.2,3
		c-0.2,0.6-0.3,1.3-0.5,2.1h-8.4c0,0-1.2,0-1.2,1.6c0,1.6,1.2,1.6,1.2,1.6h7.4c-1.3,3.4-3.4,7.3-7.4,11.1c-1.2,1.1-1.8,2.8-0.9,4
		c1.4,2,3.4,0.5,3.4,0.5c1-0.9,2-1.8,2.9-2.7v15.1c0,0,0.1,1.6,2.6,1.6c2.5,0,2.6-1.6,2.6-1.6v-6.1h20.3v3.3c0,0.7-0.3,1-1.2,1
		c-1,0-1.5,0-1.5,0h-3c0,0-1.4,0.1-1.4,1.6c0,1.5,1.4,1.6,1.4,1.6h7.9c2.3,0,3.1-1.2,3.1-3V49.8c0-1.7-0.8-3-3.1-3h-21.1
		c0.5-1.1,0.9-2.2,1.2-3.1h23.8c0,0,1.2,0,1.2-1.6C154.1,40.5,152.9,40.4,152.9,40.4z M126.5,57.8h20.3v4.6h-20.3V57.8z M145.4,50
		c0.9,0,1.4,0.4,1.4,1.2v3.4h-20.3V50H145.4z"/>
    <path fill="#FFFFFF" d="M266.7,53.6h-16c-1.3,0-2.4,1.1-2.4,2.4v15.7c0,0,0.1,1.6,1.9,1.6c1.8,0,1.9-1.6,1.9-1.6V57
		c0-0.3,0.2-0.5,0.5-0.5h12.2c0.3,0,0.5,0.2,0.5,0.5v1.4l0,0v13.3c0,0,0.1,1.6,1.9,1.6s1.9-1.6,1.9-1.6V56
		C269.1,54.7,268,53.6,266.7,53.6z M285.4,62.1c1.3,0,2.4-1.1,2.4-2.4V44.6c0-1.3-1.1-2.4-2.4-2.4h-3.8v-3.7c0,0-0.1-1.5-2.4-1.5
		c-2.3,0-2.4,1.5-2.4,1.5v3.7H273c-1.3,0-2.4,1.1-2.4,2.4v15.1c0,1.3,1.1,2.4,2.4,2.4h3.8v7.7h-5.3c0,0-1.2,0-1.2,1.6
		c0,1.6,1.2,1.6,1.2,1.6h13.8c1.3,0,2.4-1.1,2.4-2.4v-4.7c0,0-0.1-1.6-2.1-1.6c-2,0-2.1,1.6-2.1,1.6v3.4c0,0,0,0,0,0
		c0,0.2-0.2,0.4-0.5,0.4h-1.7v-7.7H285.4z M281.5,45.1h1.8c0.3,0,0.5,0.2,0.5,0.5v13.1c0,0.3-0.2,0.5-0.5,0.5h-1.8V45.1z
		 M276.8,59.2H275c-0.3,0-0.5-0.2-0.5-0.5V45.6c0-0.3,0.2-0.5,0.5-0.5h1.8V59.2z M249.7,40.8h17.5c0,0,1.2,0,1.2-1.6
		c0-1.6-1.2-1.6-1.2-1.6h-17.5c0,0-1.2,0-1.2,1.6C248.4,40.7,249.7,40.8,249.7,40.8z M263.3,62.3h-0.6c0.2-0.9,0.5-2.1,0.6-2.6
		c0.1-0.4-0.1-1.4-1.5-1.5c-1.5-0.1-1.9,0.7-2,1.5c-0.2,1.1-0.4,2.1-0.5,2.6H258c-0.1-0.5-0.3-1.4-0.5-2.6c-0.2-0.8-0.5-1.7-2-1.5
		c-1.4,0.1-1.5,1.1-1.5,1.5c0.1,0.5,0.4,1.6,0.6,2.6H254c0,0-1.3,0-1.3,1.5c0,1.4,1.3,1.5,1.3,1.5h2.7v6.5c0,0,0.1,1.6,2,1.6
		c1.9,0,2-1.6,2-1.6v-6.5h2.7c0,0,1.4,0,1.4-1.5C264.7,62.3,263.3,62.3,263.3,62.3z M265.1,42.3h-12.8c-1.3,0-2.4,1.1-2.4,2.4v5
		c0,1.3,1.1,2.4,2.4,2.4h12.8c1.3,0,2.4-1.1,2.4-2.4v-5C267.5,43.3,266.4,42.3,265.1,42.3z M263.4,48.8c0,0.3-0.2,0.5-0.5,0.5h-9
		c-0.1,0-0.2,0-0.2-0.1v-4.2c0.1,0,0.2-0.1,0.2-0.1h9c0.3,0,0.5,0.2,0.5,0.5V48.8z"/>
    <path fill="#FFFFFF" d="M241.6,69.8h-5c1.2-2.3,1.9-6.2,1.9-6.2s0-2-2.5-2c-2.5,0-2.8,2-2.8,2s-0.8,4.2-1.7,6.2h-4.9V58.9h13.1
		c0,0,1.2,0,1.2-1.6s-1.2-1.6-1.2-1.6h-13.1v-4.5h9.9c0,0,1.2,0,1.2-1.6c0-1.6-1.2-1.6-1.2-1.6h-25.1c0,0-1.2,0-1.2,1.6
		c0,1.6,1.2,1.6,1.2,1.6h9.9v4.5h-13.1c0,0-1.2,0-1.2,1.6s1.2,1.6,1.2,1.6h13.1v10.9h-4.9c-0.9-2-1.7-6.2-1.7-6.2s-0.3-2-2.8-2
		c-2.5,0-2.5,2-2.5,2s0.7,3.9,1.9,6.2h-5.2c0,0-1.2,0-1.2,1.6c0,1.6,1.2,1.6,1.2,1.6h35.4c0,0,1.2,0,1.2-1.6
		C242.9,69.8,241.6,69.8,241.6,69.8z M242.7,45.1c-2.3-1.1-8-4.6-10.7-6.4c-0.8-0.5-2.3-1.7-4.6-1.7h-6.6c-2.2,0-3.8,1.1-4.6,1.7
		c-2.7,1.8-8.4,5.4-10.7,6.4c-0.3,0.2-2.1,1-1.9,2.4c0.1,1.5,1.9,1.8,2.7,1.5c5.4-2.1,10-5.3,13.9-7.8c1-0.7,1.5-0.8,2.1-0.8h3.6
		c0.6,0,1.1,0.2,2.1,0.8c3.9,2.5,8.5,5.7,13.9,7.8c0.8,0.3,2.6-0.1,2.7-1.5C244.8,46.1,243,45.2,242.7,45.1z"/>
</g>
</svg>
